<mxfile host="app.diagrams.net" modified="2022-11-09T02:19:52.508Z" agent="5.0 (Windows NT 10.0; Win64; x64) AppleWebKit/537.36 (KHTML, like Gecko) Chrome/107.0.0.0 Safari/537.36" etag="VX-HELZsxNimYoEXe4-q" version="20.5.3" type="github">
  <diagram id="Qw8Z7lbexOtORJ6UpL3S" name="第 1 页">
    <mxGraphModel dx="860" dy="515" grid="1" gridSize="10" guides="1" tooltips="1" connect="1" arrows="1" fold="1" page="1" pageScale="1" pageWidth="827" pageHeight="1169" math="0" shadow="0">
      <root>
        <mxCell id="0" />
        <mxCell id="1" parent="0" />
        <mxCell id="GAQL_ueRVJ72y8l0r0vX-6" style="edgeStyle=orthogonalEdgeStyle;rounded=0;orthogonalLoop=1;jettySize=auto;html=1;entryX=0;entryY=0.5;entryDx=0;entryDy=0;" edge="1" parent="1" source="GAQL_ueRVJ72y8l0r0vX-2" target="GAQL_ueRVJ72y8l0r0vX-5">
          <mxGeometry relative="1" as="geometry" />
        </mxCell>
        <mxCell id="GAQL_ueRVJ72y8l0r0vX-2" value="" style="shape=image;verticalLabelPosition=bottom;labelBackgroundColor=default;verticalAlign=top;aspect=fixed;imageAspect=0;image=data:image/png,iVBORw0KGgoAAAANSUhEUgAAAIAAAACACAIAAABMXPacAAAgAElEQVR4AbzBMYttXVb+7Xv8xpirTrfF9mjTtDatgSIiGBiYmBiZmBmZmPhZBSO/gWBkpklDgzy115z3fGHAgip2nXqqj6//64qvX7/almRbDVCzrQugi229ZVuSbV0ASTQ9ANRsS7KtVwBJgJptfci2vgugb3NTo6m5SQIkAWq21dz0bTS1+Pr1q21JttUANdu6ALrY1lu2JdnWBZBE0wNAzbYk23oFkASo2daHbOu7APo2NzWampskQBKgZlvNTd9GU4uvX7/almRbDVCzrQugi229ZVuSbTVAjaYHgJptSbb1CiAJULOtD9nWdwH0bW5qNDU3SYAkQM22mpseALoAavH161fbkmyrAWq2dQF0sa23bOstQBKg9wBqtiXZ1iuA/tds6wLoYlsXQN/mpkZTc5MESALUbKvZ1ocAXeLr16+2JdlWA9Rs67dhWw1Qo+nb3PQeQM22LoAaoGZbvw3bugB6AKjNOW2r0dTcJAGSADXbutjWA0AP4uvXr7Yl2VYD1Gzrt2FbjSYJ0Ifc9B5AzbYugBqgi219CNDFtj4EqPkiiabmJgmQBKjZ1sW2HgC6AGrx9etX25JsqwFqtvVdADVAH3LTpwFqgD5kWxdAF9v6EKDmiySampskQBKgZlsfAvQgvn79aluSbTVAzba+C6AG6ENu+jRADdCHbOsC6GJbHwLUfJFEU3OTBEgC1GzrQ4AexNevX21Lsq0GqNnWdwHUAH3ITZ8GqAH6kG1dAF1s60OAmi+SaGpukgBJgJptfQjQg/j69attSbbVADXb+i6AGqAPuenTADVAr0SEpL23LrZ1AXSxrQbY1gNAzRdJNDU3SYAkQM22LoCabTVAEqC34uvXr7Yl2VYD1GzruwC6APo2N30aoAboEhF6Ze8tybYugC621QBdbOsCqLmpAbq4SQIkAWq2dQHUbKvR9CBut5s+wbY+DdADQA/c9GmALoCkiNBbe2/99myrAbq4SaJJ8kUSF0luaoDeA+hB3G43fYJt/fYAXQA9cNOnAboAkiJCEiDJtqS9tz4hInTZe9tWA3Rxk1RVar5I4iLJTY2mZlsNkBQReitut5s+wba+C6AG6IGbPg3QBZAUEZIASbYl7b31CRGhy97bthqgi201QM0XSVwkuanR1GyrAZIiQm/F7XbTJ9jWdwHUAD1w06cBugCSIkISIMm2pL23PiEidNl721YDdLGtBqj5IomLJDc1mpptNUBSROituN1u+gTb+i6AGqAHbvo0QBdAUkRIAiTZlrT31idEhC57b9tqgC621QA1XyRxkeSmRlOzrQZIigi9FbfbTZ9gW98FUAP0wE0/BtADQFJESAIk2Za099YnRIQue2/baoAuttUANV8kcZHkpkZTs60GSIoIvRXPz8+AfoxtfRdADdADN/0YQG8BahEhCZBkW9LeW98WEXqw97atBuhiG9ArvkjiIslNjaYHEaEH8fz8LAnQh2zruwBqgF6xLclNF0BvAXoF0CUi9GDvrQ9FhB7svW2rAfo2XyRxUbOtB4AuEaEH8fz8LAnQh2zruwBqgF6xLclNF0BvAZIAvRURes/eWx+KCD3Ye+tzbEuyLQmQBKjZ1gNAl4jQg3h+fpYE6EO29V0ANUCv2JbkpgugtwBJgN6KCL1n760PRYQe7L31ObYl2ZYESALUbOsBoEtE6EE8Pz9LAvQh2/ougBqgV2xLctMF0FuAJEBvRYTes/fWhyJCD/be+hzbkmxLAiQBarb1ANAlIvQgnp+fJQH6kG19F0AN0Cu2JbnpAugtQBKgtyJC79l760MRoQd7b32ObcC2LoCabT0AdIkIPYjn52dJgD5kW/87NF1sS3LThaYHgN6KCL1n760PRYReASTZ1jfsvdUiQtLeW5JtSYCkiJC097atB4AuEaEH8fz8LAnQh2zrQ7b1HkCNpottSbbnnJIASTS9AtgG9CAi9G17b70nInQBdLGtBqjZlrT3lhQRemXvrUtESNp729YDQJeI0IN4fn6WBOi72FazrfcAaoAe2J5zSuKitwB9Q0To2/beek9E6EKTZFvvsb33lhQRgCTbgG092Hvb1luALhGhB/H8/CwJ0HexrWZbH6LpLdtzTkm8os+JCDVAF9tqe2+9JyJ0oanZVgPU3PbekiIC0MW2LoAk23tv22qAHkSEHsTz87MkQN/FtpptfYimt2zPOSXxij4nItQAPbCtD3FRs60GqPkiiaaLbb1le+9tWw3Qg4jQg3h+fpYE6LvYVrOtD9H0lu05pyRe0edEhBqgB7b1IS5qttUANV8k0XSxrbds771tqwF6EBF6EM/Pz5IAfRfbarb1IZresj3nlMQr+pyIUAN0AdRs60Nc1GzrwZxTDdArtvWW7b23bTVADyJCD+L5+VkSoO9iWx+yrUbTW25qXPRtEaELYFtSVdmWBOhiWw3QewBJgJptNUDNF0k0NTe9ZXvvrUtEqO29dYkIPYjn52dJgL6LbX0aoGYbkOSmxkXfFhG6AGqALoAk23oL0AMgIvbeEbH31ltuugBqbnrL9t5bLSJ02XvrEhF6EM/Pz5IAXWyrAfpfs60G6GJbF9uSuOhBROgBoAugBugbAD2ICD3Ye+viJgnQxU0PbO+9JUUEoGZbH4rn52dJgC621QB9F0AX23pgWw9oehARugB6AKjR1GyrAZIiQg8AXWzrrb23bTVAzRc9sK0G6GJbDwDbavH8/CwJ0MW2GqBPA/Qe23pgWw9oehARugBqgC6AGhARantvtYiQBOgBIMm2XrGty95bl4iQtPd20wPbaoAutvUe22rx/PwsCdDFthqgTwP0Htt6YFsPaHoQEboAaoAugBoQEZIAXQBJgD7Hti62dbEtae/tpge21QBdbOs9ttXi+flZEqCLbTVAnwboPbb1wLYe0PQgInQB1AA1QBIgKSJoegXQewC9x7YutnWxLcn23tu2JEAXNzVAF9t64KYWz8/PkgBdbKsB+jRA77GtB7b1Fk0tIvQNgBogCZAEqGUmTa8Aek9E6BXAtt7ae6u5SXLTe/betiUButjWW7YlzTkl7b3jdrvpFdu6APoQoB9jW822vo0mKSL0FqAHNEmApIiQVFU0vRIReg+gBujbbEuyvfd2k2RbD2zrwd5bb7nNOffekuJ2u+kV27oA+hCg99jWA9v6NpqkiAD0Y7ioRQRQVUBEAPoxgCSabUDvsS3J9pxz721b3+Cmt2zrrb237fv9vveWFLfbTa/Y1gXQhwC9x7Ye2NZ7ADUgIiQB+hBNEhARkmhVFRFVBUiyLQnQewC1iJAEqAF6xW3vPed003v23m6AbX2D21przml77x23202v2NYF0IcAvce2HtjWewBJQERIoulDtIiQBEiiZSZQVYB+TERIokkC1AC94stay03vcdt7S7Ktb/DlPE+3uN1uesW2LoA+BOg9tvXAtt4DSAIiQhJNEqBmW6/QIoKLJCAiqgrITEA/BpBEk5SZaoBecdt7zznd9GDv7Ysk2/qGvbftOed5nm5xu930im1dAH0I0Hts6wJIctMrgBogKSIASTR9GxARVUXLTDWgqiKiqgA1QM223gIkRQQXNUCv2JZke86597atV2yrue29JbnpPW5rrfv9vve2HbfbTa/Y1gXQhwC9x7YaoMucUxdADZAUEZIASVz0DRFRLTO5SIoIWlVFhCRAP6aqAEmZqQboFduSbK+1JNmWZFvNtqS9ty+SbOuy99YrbnPOtdac03bcbje9YlsXQB8C9B7baoAubpIASYBaREiiSaJFBCDJtl6hVVVmHscRETS1qpKUmTRJgJptvQVIighaValFhF7Ze0tyk2Rbkm1Je2/bknzZe0uyrWZbkm1dbO+9bd/v97237bjdbvotAfqQbTUgIiTtvd0k0SJCDZAEqNEyE1CzrQZIqqrMPI4jM6sKiAg1QFJVAREB6MfQMrOqAL3HtiTbkmxL2nvbljTnlGR77+2LLrb33rbVALc551rL9pwzbrebfkuAPicidFlr6QJEhCRAEiAJkARERFUButiWRMvMqhpjHMeRmTQ1QFJEAFUlCdCHIgKoqswE9G22Je29JfmVvbdf2XtLsq3mpovtvbftOafttVbcbjf9lgB9TkQAkmzvvW1LAiICkARIAiQBkiICqCpAb0UEUFVjjOM4xhhVFRG6AJJomUnTh2iZWVURoR+z95bky1rLl723myTbkmzvvW3rYluS7fM8bc8543a76bcE6HMiApBke+9tWxIQEYAkQBIgKTMl0aoqIvQWUFWZeRzHGKOqxhg0NUBSRABVlZmAPkTLzKoC9GNsS/JlreW297Y957Qtae8tyRddbO+9bc85ba+14na76bcE6HMiApBkW9LeW1JE0CQBkgBJEUGTVFURoQZIAqoqIqpqjHEcR2ZWFZCZkmiSgMysKiAi1AC9h5aZVQWo2dYF0Cu2JbntvWfbe/uy93aTZFvSWkuXOafbWsv2nDNut5u+AdB7IkKfBkiyLWnvLSkiaJIASYCkzKRJAjJTjUtmVlVmVtUYAziOIyK4ZCaXzKwqQC0i9B5aVWUmIMm23gJ0sQ24rbXmnGst23NO23tvXyTtvSXZluS21nKbc+6955xxu930DYDeExH6NEDNthogCZBUVbaBiKgqmqSIACRxycyqyszjOIDMrKrMBKoqM4GqioiqAjKzqgA1QJeI0CtAVWUmIMm23gJ0sQ3Y3nvbvt/vay3bc86995zTtiTbe29JbpJs771n23vPOd3idrtJAvRpEaEHgJptwLYkQK/YllRVkgBJgKSIoFVVREiiSaJlZlWNMaoqM6uKlplVlZlVBYwxgMyslpmAGiAJkBQReoVWVREhae+tBxGhtveOiL2323mes+29bc85be+93dTcJK21zvO0Pedca7nF7XaTBOhBROg9gD4N0FuAJEBSREiiVVVEAJJokoDMrKrMPI5jjFFVQGZKqqrMrKrMrKoxRrWIqBYRgCRAEiAJ0CsRwUWfAPhynuecc60157S91vIrantvSbbnnOd5zjnXWnNO23vvuN1ukgA9iAi9B9ADQO8B9BYgKSIkAZJomVlVgBoQEUBVZeZxHGOM4zgykyYpM6sqM4/jyMzjODKzWmZWFRARkgBJgCRArwARQdMnAL6c5znnXGvNOW2vtXzZe6v5sta63+9rrTnnWsstbrebJEAPIkLvAfSgqvQeICL0CmAbkARIAjITOI4jItS4ZGZVjTGO4xhjVBUQEZKqKjOraoxRVWOM4zgys1pm0iQBkiJCEqBXuESEPgGwvfe2fb/f11pzzrWW7Tmn7b23m5rb3nvOeZ7nbGutOefeO263myQgIvQWoE8AJNH0SkRIqiq9BdgGJAGSIgKoqsykSaJlZlVl5nEcY4zjODKTJikzqyozj+PIzOM4MrPaGKOqIoKLLoBeiQhAEiAJ0Ce4rbVmW2sBP/zwg6TMnHNGxFrrfr/vvd3mnOd5zjnXWnPOtZbtuN1ukoCI0FuAPgSo0SJCF0ASUFWSImLvrRYRugCSaJlZVTRJEVFVwBijqsYYx3FkZlVlJiCpqjKzqjLzOI7MPI4jM6tlZlUBEQHoAugVQBIgKSIAvce2GmB77y1ptr33nNP23nvOOcbIzOM4JP33f//3bHtv23POtdb9fl9rzTltx+12k5SZaoA+DVADMhOQBKjRxhiSANt6QIsIWlVlJiAJyEzgOI7MPI4jM8cYVUWLiGqZWVWZeRxHZlYbY1RVZnLRJSL0FqDGRQ9s62Jbktvee85pG3h5ebndbr//+7//B3/wB1++fPn1r3/9r//6r3POtZZtSed5znae55xz7x232w2ICDVAF0Cv2NZbgCRaZnKxDUREtYgAbOsBIImWmVVFiwigqjKz2hgjM4/jyEwumVktM6sqM4/jyMxqmVlVmUnTNwC6AJkJ6C03Xfbear6stWz/7u/+7s9+9rM///M//5M/+ZP/+q//+vd///d/+Zd/WWvNOW1LWmvNOc/zvN/vay3bcbvdgIgAJAH6LQGZWU1SREiiVdUYg2Zbkm29QosIWlVFRFXRMrOqMrOqxhhVlZnVIgKoqsyslplVlZnVxhhVlZlVBUSEPgRIAqoqIvTW3tu2mm1d3Pbetn/605/+zu/8zq9+9as/+qM/+vnPf/5v//Zv//Ef//Gf//mfc861lm1Jc8611v1+P89zzrnWitvtBkQEIAnQpwGSgMysqsykSaJl5nEcEQHY1gNeiYiqAjKTVlWZWVWZeRxHZlZVZlYVLTOrKjOrZWZVZWZVjTGqZSZNnwBkJqC33NT23nrFl8z86U9/+vXrV0m/+c1vfv3rX5/n+Zvf/GatNee0LWmtNec8z/N+v6+15pxxu92AiAAkAfoEQBIgKSKqaoxRVTRJEQFU1RiDZhvQK0BE8EpmSjqOIyKAqsrMqsrMaplZVZkJVFVmVsvMqsrMapl5HEdmAlUVEYA+AchMvWfvrWZbr7jtvSVV1f1+r6rzPG2vtf7nf/7H9pzT9t57trPNFl+/fo0ISYAkQB8CdAEiAjiOIzOP44iIqpJEi4jjOICIUAMkAZJoEcErEVFVQERUy8yqGmNUVWZWiwjgOI7MrKrMrCogM6uNMaoqM6tKUkToAugt22o0XQA1NzXbaoAk25L23m5rLUluc8611pxzreU251xr3e/38zznnGut+Pr1a0QAaoC+DVADJEUEUFWZeRzHGKOqgIgAJFUVEBG8IikiuGQmIIkWEVVFy8yqysxqmVlVmVktIo7jyMxqmQlUVWZW1RijqiKiqgA1QN9gWw3Qh2zrAtiW5Mtay23vbXvOaXutZXvOudaac57neb/fz/Occ8bv/d7vSQLUAH0bIAmQFBG0qhrty5cvmQlIokUEr2Qml4gAqiozATVaZtIys1pmVhWQmVWVmdXGGFWVmVWVmVUFZGZVZWa1iADUAH2Dbf0vrLX8ylrLbe/tNudca805z/O83+/nec4511rxs5/9TK8A+gZAEhARkriMMY7jGGM8PT1VFRARgCRAEpCZwHEcEQFUVUQAVZWZgBotM2lVlZlVlZlAVWVmtcysqjFGVWVmtcwEMrNaZnJRiwh9aO8tybYeAGq2dQEk+ZW1lu05595bkm1Jc8699/1+X2vd7/fzPO/3+1przhk/+9nPAL0C6GJbF1pE8EpEVNUY48uXL09PT5nJRRIgKSKqjTEyU1JVAZlZLSLUAElVBWRmVQGZWVVAZlZVZlbLzOM4MvM4jsysqogAqiozq2UmoAsgCdAD25J80QNA32Z77217zrnWmnPa1sX2Wus8z/v9fp7n/X4/z3POudaKn//853oL0HuAiOCViACO4xhjPLWqokWEJC6ZWVVjjKoCMhOoqsysKkAtIiRVFZCZVQVkZlUBmVktM6sqM4/jyMzjODKzqoCIqJaZVQVEhC6AJEAPbEuyvfe2rQeAvs2Xtdac8zxP25IASbbnnGf74YcfzjZb/OIXv9BbgB5EBK9kJpcxRlU9taqKCJqkqpKUmVWVmcdxZCZQVRFRLTMBNUBSZgJVlZlAVWUmUFWZWS0zq2qMUVVjjKrKTFpmVstMmi6ApIjQg7WWJF/0ANC32d57255zrrXmnLZ1sb3Wut/vZ7vf7+d5zjnXWvGLX/wC0CsRobcASUBVRURV0SICOI5jtC9fvkQEr2QmkJnHcQBjjKqKCKCqgMysKkBSRACSqiozq0nKzKoCxhhVlZlVBWRmVWXm09NTtYgAqiozq0UEoAsgCdBbbpJs773VbOsVQG/Z1sW2JNvnec4511q21QDb9/v9bPf7/WyzxR/+4R9KighdAF0ASYAkIDOrKjN5JTOP4xitqiTRMrOqMvM4jjEGkJlVRYuIqgIyE5AEVJWkzKyqzKwqIDOBqsrM4zgys6qAiKg2xqiqzKwqIDOrKjOriqZLREgC9Jbtvbck25JsS7ItybYkQO+xrbb3lmR7zrnWut/vtiUBkmyvtV5eXu73+9l++OGHtdacM375y19KAnQBdKFFhCSgqsYYQFVFBK2qMvM4jjEGIAmIiKoaYzw9PR3HMcYAqioieCUzuUREVUmqqsysqswEqgrIzOM4xhiZySUzq2qMUS0zgarKzKrKTJptNUBSVektN0m2JdlW23vbVgP0lpsubmutOed5nrYlAZJszzlfXl7O87zf7+d5vry8zDnXWvHLX/6SiyTbgCRAUkRIqipaZlZVZlYVLSKqZWZVZaZaVWXmly9fntoYg1ckRURV0SICqKrMlFQtM6sKyExgjHEcxxijqiJCEq2qxhhVlZlVlZnVIqKqaLpEhCRAb9nee+stX/QNtvfeurjNOdda9/t97y0pIiStteac53ne7/ezvby8zBa/+tWvuKhFhCRAEpeIAKpqjFFVmckrmVlVmQmoVdUY4+np6Sc/+cnT09NxHEBE0CTRIoJLZlYVkJnVMhOoqog4jmO0qgLUgMx8enqqlplVlZlVBWQmTRdAEqC33NRsq9nee9tWA/SWL7rYXmvNOc/zdAMkzTnXWvf7/Wz3+/3l5WWtNeeMP/7jP6ZlphogCZAERERV0TLzOI7MrCogImhVlZlVFRFqVTXG+PLly09+8pOnp6cxBpeIkMQrEQFUVWYCVZWZ1SKiqoDRjuPITEANqKoxRlVlZlVlZrWIqCqaLhEhCdBbtvfeessXfYPtvbdtXWzPOdda9/t9720bkHS/322f7X6/n+f58vIy51xrxZ/8yZ9EBE0STVJESAKqKjNpVTXGqKqIAKoKiIiqysyqAtQy8ziOp6enn/zkJ2OM4zgyk4skICJ4JTOrCsjMqsrMqgLGGMAYo6rGGFUFqEUEcBxHZlZVZgJVlZnAcRwRAegCSAL0lpvesr33tq1v8EWXvfds53m6qa215pzned7v97XW/X5/eXlZa93v9/jTP/1TXomIqpIESAIys6qAzKyqzASqCogI2hijqsYYgFpVjfbly5enp6fMrBYRgCQuEUGrqogAqiozj+PIzKrKzGpjjKrKTECXqhpjAJkJVBWQmVWVmTRdAEmA3rKtB77oG/bekmxLsi3J9lrL9v1+33vPOSXNOddatuec53nOOc/zfHl5mXOe5xl/9md/RstMoKqAiKBJqqrMrKrMBKoKiAigqiICOI4jM4/jyExAEjDGqKqnp6eqGmNUVWZWFSApMwFJVRURkriMMaoqM6tqjHEcR2ZWVWZWFS0i9t4RUS0igKoCIqLaGIMmybakzJQE6C3berD3dtO3uantvW3POW2vteacay3bc861lu0551rrfr+vtX744Ye11v1+j7/4i78AIqKqgMysFhFq1TLzOI6IACRVVUTQqmq04zgyk0tmVsvM4zgy8ziOiKBVVURwkQREBFBVmXkcR2YexzEaUFVAZgJqtMzkEhFAVWXmcRxAROgCSAL0lm29x/beWx+ac6q57b1n23vf73fb53nOOffec07b53nOOV9eXs7znHPGX/7lX9KqKiKO48jMqgIkARFxHAcwxgAiQhKtqiKiqsYYx3E8PT1VVUTQqioiqgoYY1TVGKOqgIioKlpE0NSAzKyqMcZxHKMdx5GZgKSqAtQiAqgqQFJE0KoqM4/jiAhAF0ASoAe2dQEkuenH2Ja09/ZlrWV7znme55zz5eVlzrn3dptzrrVeXl7u9/t5nvFXf/VXtMysqjFGVWUmTVJVZWZVjTEANSAiqgrIzOM4xhhPT0/VIoJLZgJVNcY4jiMzaZlJy0xAF6CqMvM4jsx8eno6jmOMQZMERAQgiUtESKoqSUBmVtUYg6YLIAnQ58w59WNsS7K99/Yra637/X6e58vLy5zT9t7b9pxzrXW/38/zvN/v8dd//dcRAVRVZh7HkZlVRZOUmVWVmcdxRIQabYwBHMcx2pcvXzKzqoCIoEkCMvM4jjFGVQERUVVARFQVoAuQmVU1xqiqp6enMcZxHEBESOIiCYgImm1AEpCZVTXGoOkCSAL0Obb1IcC2JF/23m5zzrP98MMPay1f1lpzzvM87/f7eZ7xN3/zN7TMrKoxRlVlJk1SZlbLTJokICKO4wBGO45jjHEcR2ZyiQhAUlWNMY7jyExaZtIyE1ADJFVVZh7HERFfvnzJzOM4IgKwzSsRAUgCJAGSgMysqjEGTRdA/3+zLcm2JLe9t+0553me9/v95eVlreU259x7zznP85xznucZf/u3f0urqsysqsysKiAiaFWVmVUFRAStqjITeHp6qqoxxnEcmVlVmVlVkmgRARzHkZlVFRFAVQERcRwHICki1KplJjDGOI4jMyUBkrhIiggukgBJEVEtM2m6APq/4SbJTdJa636/n+f58vIy51xr2Z5zrrVszznP85xzxt/93d8BmQlUVURUVWZyyUygqjKTS2ZWy8zjODLzOI4xRlVlZlVlJiCJyxgjM4GqkpSZtDFGVUkCJAERAVQVkJlVlZmSAElcIoImCZAERARQVUBm0iQB+r9kW5JtSbYlrbXu9/t5nvf7fa0151xrzbb3nu08z/j7v/97oKoioqqAiKgqIDO5ZCatqjKzqjLzOI7MPI4DGK1aZlYVEBGApKrKTKCqIkJSVQGZWS0iAElcIoJWVREhCZDEJSJokmgRIalaRHCRBOj/mG01X9Za9/v9PM8553mec87zPOece2/bc861VvzDP/wDLTMBSVUFZCZQVRHBK2OMqhpjAGOMqhpjVFVmVsvM4zgykxYRXDKTJqmqIqKqxhhVJYkmKTMlAZJoESEJkMQlImiSaBEBVBUQEVwkAfq/Z1uSbUm211r3+32tNed8eXmZc57nOee0vfe2fb/f4x//8R8joqpokiICqKrMrCpaRNDGGFU1xqiqMUZVjTGAqsrMamOMzOSViOAVSREBVNUYo6qAiAAkcVGLCDVAEpeIoEmiRQRQVUBEcJEE6P8V25JszznXWnPOtdYPP/xwtjmn2957zuQ0kP4AABDySURBVBn/9E//BGQmTRItM6sqM3klIo7jyMzjODLzOI7MPI4DyMyqysyqGmNUFRARvBIRgBotM4/jyEwukgBJEbH3lhQRaoAkLhFBk0SLCKCqgIjgIgnQ/yu2JbmttWZ7eXk5z/N+v6+15py2995zzvjnf/5noKqAiFADjuPIzOM4IqKqaBFR/19vcMgzWlZkAXTXrjrnvvdHMSgMBoVB4TAoDAaFwaEwGBQOg8KgSBAk0PdU7ZqkkpvcL68Zmsl0rzXWWhGx1ooId48Iku4eEe6+93Z3PsyMAwAHhpnFcHc+8DAzDJKSAJAEwIeZcQDgMDMAEcFhZiQjAgBJfLckZWZVScrMr7766pxz3/c5R4+qsu9973sk11ok8SDp7td17b3dnSMizCwiSK61IsLdI2KtRTIizCzGWisizIwvAMyMJB4c7h4RACICw8zwQlISAJIA+DAzkhEhiQOAmfHh7iQjAgBJfLc0MrOqMvOcc9/3GZIyU1JV2fe///2IcHcOSQBIRsQ1IsLdI4KkmZGMCHeP4e4RYWYRQXKtRTIi3D0iSJoZBwCS+Iiku/OBYWZ4IQlAEkmMiCBpZiQjAg+SAMyMIyLMLCI48J3LTElVlZnnnPu+zzn3fVdVZkqqKvvBD37g7hHh7hjdbWZ772tExFqLZESYGR/uvvd2d5IRYWYxzCyGmUUEh5nho+42MwARQRIASbyYGQZJSQBIYpCMCDMjGRGSSOKFpLtHhLtHBAe+c5kpqapyfPXVV1V133dV3fctqarshz/8YUS4e0RgSCK51vr8+fN1XXtvd49hZgA43D2GmUUESXePCA53jwh358AXJGFwACCJr2NmeOGICDPjwBdIunsMd48IkvjOaWRmVd33fc7JzDNyVJX96Ec/iuHuGJJI7r0/f/58Xddaa+/t7hFhZhgkI8LdI4Kku3NEhJnFMLOI4MCLJACSMEhikMTXMTN8RDIiSJoZSXyBZES4e0S4e0Rw4LulkZlVlZnnnMw859z3fc7JzKqyH//4x+4eA4CZdbeZ7b0/f/681tp7X9fl7hFBUhIAku4eEe5OMiJImllEcJgZyYggaWZ46W4AGgBIYpDE1zEzfCEiOMwMH3FEhJnFcHcOvJDEt0wjM6sqM885mXnOue/7nJOZVWU/+clPIsLdIwIASQAk11rXde2914gId48ISQBIRoS7770BuDsfZgYgIjjMjKQkPLobgCR8RBLfjJlxACCJB0kzA0AyIki6e0SQdHcAJPHgwLdJIzOrStI5JzPPOfd9n3Mys6rspz/9qbuTXGsB4IgId997r7H3dveIIIlhZjHWWhxmBoADAIeZASCJIQlAdwOQhI9I4guSSEoiiRczwyCJR0SQdHc+zIxkRJAEYGYYHBGBb1lmSqqqzDznZOY5577vc05mVpX97Gc/I2lmEUHS3SOCpLvvvd09ItZaEeHuJDFIRsQaHAA48DAzkniRBKC7AUjC1yGJF0n4ZkiutSLC3TkAkDQzDgAkJZF09xj4lmWmpKrKzHNOZp5zMvOck8N+/vOfkwSw1iIZEWutiDCziCC51ooId48Ikhgk3X3vvdYi6e7dbWYASEoCQBIPSXh0N4DMxCCJf08SSUn4SBI+IrnW2nuvtUjiQRIASTPDIBkRa629N75lmSmpqjLznHPfd1XlOOdkpv3iF78wMwAx1ogIkmZGMiLcPYa7SwJAcu+9BockACQBSMIgKQmAJADdDUASAEn4iCS+IAmAJLxIAtDdACRhuPunT5/WIImPSAIgCYDkWisirusiiW+NpMyUVFWZWVX3fVdVjqrKTPvlL39JEoC7R8Ra67quiOAA4O4R4e4RQRKDpLvvvddaHJLwkISHJACSAHQ3AEkAJOEbkARAEl66WwOAJIyIuMbe28wAdDceZgaAJACSa62993VdEYFvjaTMlFRVmVlV931XVY6qykz71a9+RRJARLj73vu6LnfnABAR7h4RJM0Mg2RErLX23mYGoLvx0MCQBEASgO4GIAmAJHwkCV+QBKC78SIpMyUB6G4AZhYRa61Pnz6ttUgCkIQHSQAkAZjZ3nutdV1XRJDEgyT+/+To7syUVFX3fVdVjqrKTPv1r39tZgBI7r3XWtd1RYS7kwRAMiLcnQODpLtHhLuTBCCpuzEk4SEJQGYC6G4AkgBIwkMSHpLw0t0AJAGQhKHR3QAkYbj7p0+frutyd5IYkjBIAiAJICLWWhFxXZe7kwRAEgBJACTxfyUJD0mZ2d05qiozqypHVWWm/eY3vyEJgKS7X9f16dMnd48IkgDcnWREmBkAkgA43D0iAGh0N4YkPCQByEwA3a2BhyQ8JAHobrxIAiAJgAaA7tYAIAkAyYhYY+9NEkMSBkkAZsax1oqItVZEcJgZHwBI4r8nCQ+NqpKUmVUl6b7vqsrMqsphv/3tbzFIRsQ1IsLd+XB3kgA4MMyMZERIApCZ3Y0hCS+SMhNAVQGQhIckDEndDUAShiQ8JAGoKg0AkjAkAeBYa+293Z0kvk5EkHT3iHD3GO7O4e4kIwIASfz3JGHoUVWSMrOqJGVmVWVmVeWw3/3udxhmFhFrrc+fP8dwdwARQRKAmQEgCYAkAA6NzOxuSfiCpMwEUFUa+EhSd0sCoAFAEl66W1JmSgLQ3XgxM5IRsdbiA19wd5IR4e4kI8LdI8LdSe69zSwiOPDf0wAgCUBVZaakqtI45+SoqsysKvv973+PQdLd996fP3929xgA3J0kHiQBkMRLju6WhC9IykwAVaWBhyQA3a0XjO7Gi6TMrCpJGJLw4HD3iCBpZhz4KCLcnWREmBnJiHD3vbe7x3B3khGB/4YkAJIwNKoqMyVVlUZV5aiqzDzn2B/+8AcMkhGx1rquK4a784GHmeGj7s7R3ZLwBUmZ2d2ZqYFHdwPQS3dLAiAJL5KqKjMl4Qt8uDsfZoaPYrg7H+4eEWutiFhrRYS7k4wIACTxzUgCoAFAUnfn6O7M1KiqzKyqHFVlf/zjH0kCMLMY13W5ewwAZkYS/4ak7s7R3ZLwhcysKkmZKam78dBLd+sBQBJeujtHd+MLZsYREQDMLCJI4iN3j4i1FgA+1lp7b3ffe7t7RLh7RAAgCYAk/pPMBKABoLslZWZVScpMSd2do6oys6ok2Z/+9CcMku6+915rRQRJdycJgKQkvEjCQ1JVZaak7paEF42qytHdkvDITABVpZfuBiAJL5Iys6okYZDEgyQAM+OLmZHES0SstSKCJIa7R8R1XRFxXZe7RwRJd+cDAEl8HUkYkgBoAKgqjaqSlJlVJSkzqyozJVVVZtqf//xnkgBIRoS7773NjGREACCJIQlDA0MSgKrKTEndjSEJgB5VlZlVpQFAEoCqApCZGt2tF7x0d2ZqACAJgCQASSQBcJgZXzAkkVwjIgCQlBQR7n5d1957rRUR7k4yIki6O0kAHPiCBgBJACR1NwCNzKwqSZnZ3TmqSlJmVpUk+8tf/kLSzDgiwt0jgiQAMwNAUlJ3SwKgAUASRlVlpqTuxpAEQKOqclSVHgC6W1JmSuruzASg0d2S8CIpM7tbEgCSZoaPSALgcHcOAJIARIS7773XWhiSYlzXtdbae7t7RJB094gg6e584AuZiSEJQFVJAqBRVZkpqaokZeY5R6OqNOyvf/0rH+5OMiLMDABJDJIa3a0HAEkY3Z2ZGt0NQBKAzJRUVZl5zslMSd0NQBKAzKyqzNQA0N2SMlMSXrpbDwB8AJCEQRKAmZGMCJJmBqC7Abj73nsNjO42s4i4rmvvfV0XSXcnGRHuHhHuzhe86AFAEoDu1kt3Z6akqsrMc05malSVhv3tb38zM764O0l8pAGguzNTEgBJGN2dmRrdDUCPqspxzsnM7tYDQFXl6G5JADSqShJeNLpbEgCSZkYSgCQMkgA43J0DgCQAEbHG3htDEkl3//Tp01rrui6SEWFmJPfe7r73NrOI4MCLpMyUBKC7AeiluyVlpqSqysxzTmZK6m497O9//zsfZsYHPtKjuzNTEgBJGN2dmRrdDUAjM6sqM6vqvu+q0kt356gqDQCSujszJeGlu/Xgw8wAdDdezIxkRJgZSTwiYq21915rYUgiGRHXda219t5mFhEk3X3v7e57b5LuzgGApCQAkjKzuwFIAqBHd2tkZnfnOOdkZnfrxf7xj3+QNDM+AJDER3qpqswEIAmjuzNTo7sBZKakqspRVfd9V1VmSuruzJRUVTm6G0PjnCOJJB56dLeZ8QFAEl443B1ARODh7nvvNfDguK5r7+3uJNdaJCNirRURa62IIGlmJAGQlARAUlVhSAKg0d0amVlVkjKzqu777m69dLf985//JAmAAwBJfEESgMyUVFV6YHR3Zmp0t0ZmVlVmVtV93+ccSZlZVZIys7tzVJUkDEndnZmS8CKpuzU4zIwkAEl44YuZkcSIiDX23gBIAjCzGGutiDCzGO5+XVdErLVIRgRJDDPrbgB6AJAEoLv10t2ZKamqMvOco5fulmRfffUVSQAkAZDEv6FHVWUmAEkAJHV3ZgLIzO6WlJlVlZnnnBznnMzs7sw852SmpKqSlJndjaGRmd2NF73wBYAkvJA0M74AMLOIcPe9t7tHBEkA7k4yItydZES4e0Sstfbe7v7p0ycz48BDEoYkjO4GoJfuztHdOaoqMwFI6m4NO+cAIAmAJP5XmSmpqvQAIAlAVUnKzKqSlJlVlZnnnMysqvu+qyrHOSczq0pSVWlgaFSVJLxodLckku5OEh9JAsCHmfEBwN0jYq0VEe4eERxmRjIiSJrZ3tvd995rrb33WosDgJkB6G4MSfhIj6rSOOdIysyqkpSZ3Q1AD6sqDJL4TzQys6o0AEjq7swEkJlVlZlVleOck5nnnMysqsw859z3fc6pKr1gdLekzJSEl+7WwIgIM8PX4QsAM+OICDPbe7v73tvdSUYEADMjCSAi1lp77zUi4roukvhIEgZJDEkAJHW3HlWVo6okZWZ3SwKgUVXW3fjGNDKzqjQASOruzJRUVZkp6ZyTmVV133dV3fddVZl5zrnv+4zM1OhuSRgaVSUJL3pgRARJfB2SZsYXMyMZESTdPSLWiIEXd997r7H3Xmvtvc0ML92Nh5nhpbs1MrO7c1RVZkrqbg0AGlVl3Y1vTCMzq0oDgKTuzkxJVZXjnJOZVXXfd1Xd911V932fcd/3OSczu1sPDEndnZmS8CKpuyVhuDtJfB0+3J0PM4sIku5Ocq316dMnd48IDEkAImKNvfdaa++91iKJF0l4kMSLHlUlKTOrStI5Ry8Y3Z2Z1t34xjQys6r06G5JmSmpqjKzqu77Pudk5jknM885mVlV932fcd93VekFo7slZaYkAN2NhwZGRJgZgO42M7zw4e58cXcOd997r7UiYq0FQBJGRKy19t5r7L3XWiTxIgkPknjR6O7MlFRVOapKj+4GoJGZ1t34ZvSoqszUANDdObo7R1Xd933OycxzTmaeczLzjPu+q+q+76rSo7slAdCoKkkAJOEhCQ8OfIGkmXFEhJlFBEkA7s4REWtEhLvjJSLWWntvd997r7X23maGB0lJJAFIIokhCUB3a2Rmd2empKrKTElVpYEhqaqsu/EN6KWqNKoKgEZmVlVmVtV931V133dV3fddVf/617+q6r7vc05VZeY5JzM1qkoSAI3uzkwAGnh0Nx5mRhIfkQRA0t1JRoS788XMIoKku++911oRgRd333u7+97b3a/riggOSSQxzAxAd5tZd+MhKTMlVZWkzOxuSZkpqaoyUxJJSd2dmf8DxRBRmaW2O1wAAAAASUVORK5CYII=;" vertex="1" parent="1">
          <mxGeometry x="130" y="260" width="58" height="58" as="geometry" />
        </mxCell>
        <mxCell id="GAQL_ueRVJ72y8l0r0vX-3" value="" style="shape=image;verticalLabelPosition=bottom;labelBackgroundColor=default;verticalAlign=top;aspect=fixed;imageAspect=0;image=data:image/png,iVBORw0KGgoAAAANSUhEUgAAAIAAAACACAAAAADmVT4XAAAA1klEQVR4AcXBsQHAIAzAMPv/o1Mm6AWxJDGJSUxiEpOYxCQmMYlJTGISk5jEJCYxiUlMYhKTmMQkJjGJSUxiEpOYxCQmMYlJTGISk5jEJCYxiUlMYhKTmMQkJjGJSUxiEpOYxCQmMYnJvpFHtg0glywbDrlk13DII8sG5EdiEpOYxCQmMYlJTGISk5jEJCYxiUlMYhKTmMQkJjGJSUxiEpOYxCQmMYlJTGISk5jEJCYxiUlMYhKTmMQkJjGJSUxiEpOYxCQmMYlJTGISk5jEJCYxiUlMYh+nhQWBVlp86gAAAABJRU5ErkJggg==;" vertex="1" parent="1">
          <mxGeometry x="130" y="337.5" width="60" height="60" as="geometry" />
        </mxCell>
        <mxCell id="GAQL_ueRVJ72y8l0r0vX-21" style="edgeStyle=orthogonalEdgeStyle;rounded=0;orthogonalLoop=1;jettySize=auto;html=1;exitX=1;exitY=0.5;exitDx=0;exitDy=0;entryX=0;entryY=0.5;entryDx=0;entryDy=0;" edge="1" parent="1" source="GAQL_ueRVJ72y8l0r0vX-5" target="GAQL_ueRVJ72y8l0r0vX-9">
          <mxGeometry relative="1" as="geometry" />
        </mxCell>
        <mxCell id="GAQL_ueRVJ72y8l0r0vX-5" value="conv" style="rounded=0;whiteSpace=wrap;html=1;fillColor=#e51400;fontColor=#ffffff;strokeColor=#B20000;" vertex="1" parent="1">
          <mxGeometry x="230" y="273.5" width="60" height="31" as="geometry" />
        </mxCell>
        <mxCell id="GAQL_ueRVJ72y8l0r0vX-8" style="edgeStyle=orthogonalEdgeStyle;rounded=0;orthogonalLoop=1;jettySize=auto;html=1;entryX=1;entryY=0.5;entryDx=0;entryDy=0;" edge="1" parent="1" source="GAQL_ueRVJ72y8l0r0vX-7" target="GAQL_ueRVJ72y8l0r0vX-3">
          <mxGeometry relative="1" as="geometry" />
        </mxCell>
        <mxCell id="GAQL_ueRVJ72y8l0r0vX-7" value="predict" style="rounded=0;whiteSpace=wrap;html=1;fillColor=#dae8fc;strokeColor=#6c8ebf;gradientColor=#7ea6e0;" vertex="1" parent="1">
          <mxGeometry x="230" y="352" width="60" height="31" as="geometry" />
        </mxCell>
        <mxCell id="GAQL_ueRVJ72y8l0r0vX-19" style="edgeStyle=orthogonalEdgeStyle;rounded=0;orthogonalLoop=1;jettySize=auto;html=1;exitX=0.5;exitY=1;exitDx=0;exitDy=0;entryX=0.5;entryY=0;entryDx=0;entryDy=0;" edge="1" parent="1" source="GAQL_ueRVJ72y8l0r0vX-9" target="GAQL_ueRVJ72y8l0r0vX-12">
          <mxGeometry relative="1" as="geometry" />
        </mxCell>
        <mxCell id="GAQL_ueRVJ72y8l0r0vX-22" style="edgeStyle=orthogonalEdgeStyle;rounded=0;orthogonalLoop=1;jettySize=auto;html=1;entryX=0;entryY=0.5;entryDx=0;entryDy=0;" edge="1" parent="1" source="GAQL_ueRVJ72y8l0r0vX-9" target="GAQL_ueRVJ72y8l0r0vX-10">
          <mxGeometry relative="1" as="geometry" />
        </mxCell>
        <mxCell id="GAQL_ueRVJ72y8l0r0vX-9" value="ResBlock1" style="rounded=0;whiteSpace=wrap;html=1;fillColor=#ffcd28;strokeColor=#d79b00;gradientColor=#ffa500;" vertex="1" parent="1">
          <mxGeometry x="320" y="273.5" width="60" height="31" as="geometry" />
        </mxCell>
        <mxCell id="GAQL_ueRVJ72y8l0r0vX-17" style="edgeStyle=orthogonalEdgeStyle;rounded=0;orthogonalLoop=1;jettySize=auto;html=1;exitX=0.5;exitY=1;exitDx=0;exitDy=0;entryX=0.5;entryY=0;entryDx=0;entryDy=0;" edge="1" parent="1" source="GAQL_ueRVJ72y8l0r0vX-10" target="GAQL_ueRVJ72y8l0r0vX-15">
          <mxGeometry relative="1" as="geometry" />
        </mxCell>
        <mxCell id="GAQL_ueRVJ72y8l0r0vX-23" style="edgeStyle=orthogonalEdgeStyle;rounded=0;orthogonalLoop=1;jettySize=auto;html=1;exitX=1;exitY=0.5;exitDx=0;exitDy=0;entryX=0;entryY=0.5;entryDx=0;entryDy=0;" edge="1" parent="1" source="GAQL_ueRVJ72y8l0r0vX-10" target="GAQL_ueRVJ72y8l0r0vX-11">
          <mxGeometry relative="1" as="geometry" />
        </mxCell>
        <mxCell id="GAQL_ueRVJ72y8l0r0vX-10" value="ResBlock2" style="rounded=0;whiteSpace=wrap;html=1;fillColor=#ffcd28;strokeColor=#d79b00;gradientColor=#ffa500;" vertex="1" parent="1">
          <mxGeometry x="400" y="273.5" width="60" height="31" as="geometry" />
        </mxCell>
        <mxCell id="GAQL_ueRVJ72y8l0r0vX-16" style="edgeStyle=orthogonalEdgeStyle;rounded=0;orthogonalLoop=1;jettySize=auto;html=1;entryX=1;entryY=0.5;entryDx=0;entryDy=0;" edge="1" parent="1" source="GAQL_ueRVJ72y8l0r0vX-11" target="GAQL_ueRVJ72y8l0r0vX-15">
          <mxGeometry relative="1" as="geometry">
            <Array as="points">
              <mxPoint x="520" y="368" />
            </Array>
          </mxGeometry>
        </mxCell>
        <mxCell id="GAQL_ueRVJ72y8l0r0vX-11" value="ResBlock3" style="rounded=0;whiteSpace=wrap;html=1;fillColor=#ffcd28;strokeColor=#d79b00;gradientColor=#ffa500;" vertex="1" parent="1">
          <mxGeometry x="490" y="273.5" width="60" height="31" as="geometry" />
        </mxCell>
        <mxCell id="GAQL_ueRVJ72y8l0r0vX-20" style="edgeStyle=orthogonalEdgeStyle;rounded=0;orthogonalLoop=1;jettySize=auto;html=1;entryX=1;entryY=0.5;entryDx=0;entryDy=0;" edge="1" parent="1" source="GAQL_ueRVJ72y8l0r0vX-12" target="GAQL_ueRVJ72y8l0r0vX-7">
          <mxGeometry relative="1" as="geometry" />
        </mxCell>
        <mxCell id="GAQL_ueRVJ72y8l0r0vX-12" value="ARCM2" style="rounded=0;whiteSpace=wrap;html=1;fillColor=#008a00;strokeColor=#005700;fontColor=#ffffff;" vertex="1" parent="1">
          <mxGeometry x="320" y="352" width="60" height="31" as="geometry" />
        </mxCell>
        <mxCell id="GAQL_ueRVJ72y8l0r0vX-18" style="edgeStyle=orthogonalEdgeStyle;rounded=0;orthogonalLoop=1;jettySize=auto;html=1;exitX=0;exitY=0.5;exitDx=0;exitDy=0;entryX=1;entryY=0.5;entryDx=0;entryDy=0;" edge="1" parent="1" source="GAQL_ueRVJ72y8l0r0vX-15" target="GAQL_ueRVJ72y8l0r0vX-12">
          <mxGeometry relative="1" as="geometry" />
        </mxCell>
        <mxCell id="GAQL_ueRVJ72y8l0r0vX-15" value="ARCM2" style="rounded=0;whiteSpace=wrap;html=1;fillColor=#008a00;strokeColor=#005700;fontColor=#ffffff;" vertex="1" parent="1">
          <mxGeometry x="400" y="352" width="60" height="31" as="geometry" />
        </mxCell>
      </root>
    </mxGraphModel>
  </diagram>
</mxfile>
